PathFileType	4	(X/Y/Z)	C:/Users/beibeiliu/ov580/test_trc/User2\sequence.28_training_dense_left.trc
DataRate	CameraRate	NumFrames	NumMarkers	Units	OrigDataRate	OrigDataStartFrame	OrigNumFrames
120	120	13	19	mm	120	161	256
Frame#	Time	ThumbCMC			ThumbMCP			ThumbIP			ThumbTip			IndexMCP			IndexPIP			IndexTip			MiddleMCP			MiddlePIP			MiddleTip			RingMCP			RingPIP			RingTip			PinkyMCP			PinkyPIP			PinkyTip			BackHand1			BackHand2			BackHand3	
		X0	Y0	Z0	X1	Y1	Z1	X2	Y2	Z2	X3	Y3	Z3	X4	Y4	Z4	X5	Y5	Z5	X6	Y6	Z6	X7	Y7	Z7	X8	Y8	Z8	X9	Y9	Z9	X10	Y10	Z10	X11	Y11	Z11	X12	Y12	Z12	X13	Y13	Z13	X14	Y14	Z14	X15	Y15	Z15	X16	Y16	Z16	X17	Y17	Z17	X18	Y18	Z18	
160	1.33333	-166.184	-7.86516	88.4002	-133.462	-4.88212	65.2438	-106.285	-12.0043	40.031	-93.2492	-33.6091	21.3698	-184.409	-30.9572	7.68203	-183.331	-32.9559	-18.702	-181.832	-40.4059	-47.3714	-153.667	-49.1458	4.3715	-117.813	-43.9486	7.0317	-111.213	-34.5076	47.6693	-139.966	-66.8992	21.5434	-109.2	-55.2858	37.1355	-122.155	-43.8565	65.4002	-134.217	-81.9186	38.6891	-111.346	-61.0465	57.9421	-133.851	-49.1066	79.3802	-188.927	-69.6572	59.7335	-198.75	-66.3367	95.8008	-201.529	-33.9597	75.7671	
161	1.34167	-166.281	-10.1679	85.7085	-131.158	-5.88927	63.2073	-106.723	-17.56	38.6084	-93.2528	-37.0939	21.7136	-183.679	-33.8288	8.196	-182.724	-40.0306	-17.6674	-179.326	-53.4313	-46.1658	-155.01	-56.5812	8.29798	-117.319	-52.3173	7.63772	-109.751	-39.9512	45.799	-136.112	-73.403	21.7471	-111.253	-58.0492	33.8933	-124.527	-46.827	67.6949	-135.077	-86.2667	40.6908	-112.558	-65.3551	54.2279	-129.574	-55.2327	80.7488	-187.024	-74.9947	61.4609	-197.203	-73.5312	95.245	-199.416	-41.1772	73.6295	
162	1.35	-166.607	-13.3654	82.9369	-132.124	-10.7768	60.6236	-105.991	-18.3754	39.3948	-94.5253	-39.7422	24.2799	-184.901	-39.9616	7.54868	-182.281	-53.0961	-20.9745	-179.897	-63.3808	-46.0586	-153.024	-61.4793	5.45858	-115.757	-52.296	8.13302	-110.507	-40.0664	44.4955	-134.77	-74.1736	21.8468	-111.066	-63.7509	35.6328	-122.979	-49.6972	66.2038	-132.11	-89.2182	39.9767	-110.606	-69.8307	58.1289	-133.771	-56.9091	82.4994	-187.84	-78.3222	64.4874	-198.204	-73.8343	95.4184	-200.819	-38.7336	75.0752	
163	1.35833	-166.406	-13.4866	80.855	-134.362	-12.7055	62.7691	-106.378	-23.2461	35.0508	-93.3983	-41.9839	23.4581	-184.023	-45.2331	7.17561	-182.407	-57.6895	-19.8824	-180.051	-67.8357	-42.5268	-154.087	-63.0596	5.76456	-118.91	-59.9534	7.24704	-111.093	-42.749	42.319	-138.883	-79.2836	23.9653	-111.914	-65.6921	33.0607	-125.783	-48.6922	64.7553	-135.302	-89.7469	41.3815	-112.764	-70.1642	55.9789	-131.277	-60.2263	78.9952	-189.843	-81.3997	65.6172	-199.571	-72.1545	98.2197	-200.512	-40.535	76.2056	
164	1.36667	-166.956	-16.5568	79.7101	-134.503	-14.7906	61.362	-109.647	-27.2944	36.5745	-94.1784	-43.689	21.1461	-185.125	-48.0031	4.57465	-183.543	-58.2039	-20.2869	-179.503	-70.9887	-41.485	-156.752	-64.0093	6.47093	-118.319	-60.2829	7.86662	-112.943	-45.6036	45.7053	-138.47	-80.534	23.4124	-110.785	-69.4369	35.2599	-124.208	-51.3702	62.6404	-135.306	-94.0141	42.9954	-114.507	-69.0676	55.8305	-136.868	-57.7238	77.8746	-187.676	-82.7477	66.6989	-198.986	-77.2605	100.968	-201.237	-44.257	72.1149	
165	1.375	-167.766	-16.2407	78.0203	-136.209	-17.8068	59.5393	-109.617	-28.5851	34.1743	-96.1378	-47.4156	21.0065	-186.153	-48.856	7.66047	-182.452	-64.2721	-19.9796	-179.955	-76.8117	-41.7758	-154.921	-69.2819	6.88244	-117.261	-61.0098	9.06404	-113.406	-43.5192	43.2512	-138.968	-79.4652	21.6825	-111.859	-66.6014	35.0154	-125.324	-51.6103	62.6422	-134.686	-92.2905	40.105	-112.152	-74.9884	56.0803	-134.218	-61.3783	75.5379	-189.997	-86.1724	66.3837	-200.415	-76.9509	96.6099	-202.378	-49.2935	73.2421	
166	1.38333	-167.603	-14.8802	78.0149	-134.593	-14.7893	58.5531	-108.344	-24.4422	32.4323	-98.4643	-48.5387	22.2862	-186.106	-48.6948	7.94678	-184.054	-62.0593	-20.7344	-182.872	-72.3297	-47.4289	-154.639	-68.1473	3.68684	-118.586	-60.3653	7.73233	-113.571	-45.0008	44.4369	-140.026	-85.1464	22.7296	-113.753	-68.366	31.9749	-124.511	-55.5249	63.1902	-132.538	-94.9631	40.3524	-115.547	-71.1202	54.3006	-133.439	-61.9045	77.7334	-190.488	-86.5533	66.6406	-200.105	-75.2483	98.1317	-201.483	-44.5296	70.9837	
167	1.39167	-168.201	-13.7007	82.7102	-134.785	-16.368	58.0236	-108.992	-21.6874	36.3967	-95.669	-45.5773	20.0261	-188.011	-46.7615	4.0901	-185.218	-57.6722	-21.5897	-182.597	-67.415	-46.8335	-155.938	-67.2809	5.16199	-120.97	-60.1302	5.68739	-113.64	-47.232	45.1347	-143.392	-80.0484	21.8861	-112.996	-67.8129	32.4622	-126.408	-53.8127	64.4257	-137.787	-92.5289	38.2268	-113.614	-74.6311	53.5605	-131.427	-62.0943	78.3137	-191.091	-84.5219	63.4443	-199.672	-76.0766	97.9784	-201.159	-43.7737	70.9405	
168	1.4	-166.44	-15.8857	82.1433	-134.215	-13.1453	64.6976	-109.649	-23.9109	37.8243	-94.808	-40.5517	20.238	-187.945	-37.1979	6.53128	-186.252	-46.2128	-21.9495	-184.199	-53.8824	-47.2386	-156.914	-58.0814	3.4715	-121.173	-55.0641	4.34256	-112.787	-42.6403	45.6292	-138.501	-75.139	19.1509	-114.914	-61.4072	31.8464	-125.808	-51.0227	61.5433	-137.969	-89.9226	36.5233	-114.974	-69.0132	51.8484	-132.654	-58.9788	73.3977	-191.52	-79.46	63.9157	-199.727	-76.5163	96.1378	-203.645	-40.3791	74.0846	
169	1.40833	-164.066	-10.1377	90.1636	-133.532	-15.1186	65.4744	-109.896	-22.3311	39.8229	-96.9341	-37.2643	24.571	-187.615	-24.4471	9.38699	-186.729	-24.4535	-19.5337	-183.204	-28.2013	-45.2358	-159.48	-51.5996	4.84268	-121.182	-44.0853	4.85513	-110.748	-40.1543	41.213	-145.068	-68.8046	18.4506	-114.058	-62.2035	31.5881	-128.566	-50.5709	67.1872	-140.489	-81.9377	32.2448	-115.685	-70.4171	51.2022	-133.244	-60.0033	74.9165	-192.678	-72.4979	62.4264	-203.896	-71.0365	95.7784	-202.704	-38.17	75.5463	
170	1.41667	-161.531	-9.83395	90.2564	-127.588	-8.9001	71.3939	-106.104	-16.0632	46.9928	-96.0148	-36.3789	23.5615	-184.86	-10.6838	10.6025	-183.165	-6.12027	-14.1873	-179.61	-4.2144	-42.51	-158.384	-39.6697	3.48745	-120.631	-35.0298	5.43936	-111.859	-41.6735	42.4886	-140.926	-62.0843	15.8486	-115.272	-54.4134	33.4464	-127.14	-48.7135	63.7804	-142.696	-80.1267	29.8968	-118.797	-66.0863	46.3038	-138.479	-57.9049	73.8204	-193.034	-69.9396	60.3972	-204.25	-70.9952	93.1418	-201.946	-33.3747	78.6878	
171	1.425	-160.243	-8.89945	95.2396	-127.889	-11.4465	74.1718	-106.114	-18.6635	46.1675	-96.6006	-32.5465	28.6103	-180.632	0.308958	13.8284	-176.978	5.4905	-9.92449	-173.783	13.3278	-37.7442	-158.624	-31.0324	5.28804	-123.741	-30.8583	3.98336	-110.345	-37.2292	44.2208	-144.719	-53.5706	16.1408	-116.66	-53.0153	28.8721	-129.859	-47.7089	66.5908	-145.08	-75.0254	28.6516	-118.382	-63.4163	47.9862	-136.059	-57.1663	72.1418	-193.493	-64.5973	55.1056	-205.731	-67.1525	93.8438	-199.215	-26.5307	81.3713	
172	1.43333	-159.208	-10.2198	96.1983	-124.185	-8.00593	76.4678	-104.392	-16.9408	47.27	-91.3477	-31.4176	26.8693	-178.484	1.14023	19.6544	-174.282	9.85078	-7.1628	-169.299	21.026	-30.847	-158.484	-31.5629	8.0414	-121.11	-29.4271	6.26748	-109.939	-37.8692	46.8138	-140.951	-51.734	15.4153	-115.272	-51.259	33.4619	-128.925	-50.3362	65.7861	-142.594	-76.4205	28.797	-118.481	-63.7831	50.9939	-139.966	-58.5317	77.5284	-193.516	-59.526	55.922	-204.464	-67.923	89.8745	-199.359	-31.722	81.2383	
